<svg width="90" height="40" viewBox="0 0 90 40" fill="none" xmlns="http://www.w3.org/2000/svg">
<path d="M1.97869 25H0.348011L4.01207 14.8182H5.78693L9.45099 25H7.82031L4.94176 16.6676H4.86222L1.97869 25ZM2.25213 21.0128H7.5419V22.3054H2.25213V21.0128ZM12.2885 14.8182V25H10.802V14.8182H12.2885ZM15.7749 14.8182V25H14.2884V14.8182H15.7749ZM21.5991 25V14.8182H23.0856V18.6016H23.1751C23.2612 18.4425 23.3855 18.2585 23.5479 18.0497C23.7103 17.8409 23.9357 17.6586 24.2241 17.5028C24.5124 17.3438 24.8936 17.2642 25.3675 17.2642C25.984 17.2642 26.5342 17.42 27.0181 17.7315C27.502 18.0431 27.8815 18.4922 28.1566 19.0788C28.435 19.6655 28.5742 20.3714 28.5742 21.1967C28.5742 22.022 28.4367 22.7296 28.1616 23.3196C27.8865 23.9062 27.5086 24.3587 27.0281 24.6768C26.5475 24.9917 25.9989 25.1491 25.3825 25.1491C24.9184 25.1491 24.5389 25.0713 24.244 24.9155C23.9523 24.7597 23.7236 24.5774 23.5579 24.3686C23.3922 24.1598 23.2646 23.9742 23.1751 23.8118H23.0508V25H21.5991ZM23.0558 21.1818C23.0558 21.7187 23.1336 22.1894 23.2894 22.5938C23.4452 22.9981 23.6706 23.3146 23.9656 23.5433C24.2605 23.7687 24.6218 23.8814 25.0494 23.8814C25.4935 23.8814 25.8647 23.7637 26.163 23.5284C26.4613 23.2898 26.6867 22.9666 26.8391 22.5589C26.9949 22.1513 27.0728 21.6922 27.0728 21.1818C27.0728 20.678 26.9966 20.2256 26.8441 19.8246C26.695 19.4235 26.4696 19.107 26.168 18.875C25.8697 18.643 25.4968 18.527 25.0494 18.527C24.6185 18.527 24.2539 18.638 23.9556 18.8601C23.6606 19.0821 23.4369 19.392 23.2844 19.7898C23.132 20.1875 23.0558 20.6515 23.0558 21.1818ZM30.2434 25V17.3636H31.6802V18.5767H31.7598C31.899 18.1657 32.1442 17.8426 32.4956 17.6072C32.8502 17.3686 33.2512 17.2493 33.6987 17.2493C33.7915 17.2493 33.9009 17.2526 34.0268 17.2592C34.1561 17.2659 34.2572 17.2741 34.3301 17.2841V18.706C34.2704 18.6894 34.1644 18.6712 34.0119 18.6513C33.8594 18.6281 33.707 18.6165 33.5545 18.6165C33.2032 18.6165 32.89 18.6911 32.6149 18.8402C32.3431 18.986 32.1277 19.1899 31.9686 19.4517C31.8095 19.7102 31.7299 20.0052 31.7299 20.3366V25H30.2434ZM37.7704 25.169C37.2865 25.169 36.849 25.0795 36.4579 24.9006C36.0668 24.7183 35.7569 24.4548 35.5282 24.1101C35.3029 23.7654 35.1902 23.3428 35.1902 22.8423C35.1902 22.4115 35.273 22.0568 35.4387 21.7784C35.6045 21.5 35.8282 21.2796 36.1099 21.1172C36.3916 20.9548 36.7065 20.8321 37.0545 20.7493C37.4025 20.6664 37.7572 20.6035 38.1184 20.5604C38.5758 20.5073 38.947 20.4643 39.2321 20.4311C39.5171 20.3946 39.7243 20.3366 39.8535 20.2571C39.9828 20.1776 40.0474 20.0483 40.0474 19.8693V19.8345C40.0474 19.4003 39.9248 19.0639 39.6795 18.8253C39.4376 18.5866 39.0763 18.4673 38.5957 18.4673C38.0952 18.4673 37.7008 18.5784 37.4125 18.8004C37.1274 19.0192 36.9302 19.2628 36.8208 19.5312L35.4238 19.2131C35.5895 18.7491 35.8315 18.3745 36.1497 18.0895C36.4712 17.8011 36.8407 17.5923 37.2583 17.4631C37.676 17.3305 38.1151 17.2642 38.5758 17.2642C38.8807 17.2642 39.2039 17.3007 39.5453 17.3736C39.89 17.4432 40.2115 17.5724 40.5098 17.7614C40.8114 17.9503 41.0583 18.2204 41.2505 18.5717C41.4428 18.9197 41.5389 19.3722 41.5389 19.929V25H40.0872V23.956H40.0275C39.9314 24.1482 39.7872 24.3371 39.595 24.5227C39.4028 24.7083 39.1558 24.8625 38.8542 24.9851C38.5526 25.1077 38.1913 25.169 37.7704 25.169ZM38.0936 23.9759C38.5046 23.9759 38.8559 23.8946 39.1475 23.7322C39.4425 23.5698 39.6663 23.3577 39.8187 23.0959C39.9745 22.8307 40.0524 22.5473 40.0524 22.2457V21.2614C39.9993 21.3144 39.8966 21.3641 39.7441 21.4105C39.595 21.4536 39.4243 21.4917 39.2321 21.5249C39.0398 21.5547 38.8526 21.5829 38.6703 21.6094C38.488 21.6326 38.3355 21.6525 38.2129 21.669C37.9245 21.7055 37.661 21.7668 37.4224 21.853C37.1871 21.9392 36.9982 22.0634 36.8556 22.2259C36.7164 22.3849 36.6468 22.5971 36.6468 22.8622C36.6468 23.2301 36.7827 23.5085 37.0545 23.6974C37.3263 23.883 37.6726 23.9759 38.0936 23.9759ZM45.0053 20.4659V25H43.5188V17.3636H44.9457V18.6065H45.0401C45.2158 18.2022 45.4909 17.8774 45.8654 17.6321C46.2433 17.3868 46.7189 17.2642 47.2923 17.2642C47.8126 17.2642 48.2683 17.3736 48.6594 17.5923C49.0505 17.8078 49.3538 18.1293 49.5692 18.5568C49.7847 18.9844 49.8924 19.513 49.8924 20.1428V25H48.4059V20.3217C48.4059 19.7682 48.2617 19.3357 47.9734 19.0241C47.685 18.7093 47.2889 18.5518 46.7852 18.5518C46.4405 18.5518 46.1339 18.6264 45.8654 18.7756C45.6003 18.9247 45.3898 19.1435 45.234 19.4318C45.0816 19.7169 45.0053 20.0616 45.0053 20.4659ZM54.7447 25.1491C54.1282 25.1491 53.578 24.9917 53.0941 24.6768C52.6135 24.3587 52.2357 23.9062 51.9606 23.3196C51.6888 22.7296 51.5529 22.022 51.5529 21.1967C51.5529 20.3714 51.6905 19.6655 51.9656 19.0788C52.244 18.4922 52.6251 18.0431 53.109 17.7315C53.5929 17.42 54.1415 17.2642 54.7546 17.2642C55.2286 17.2642 55.6097 17.3438 55.8981 17.5028C56.1897 17.6586 56.4151 17.8409 56.5742 18.0497C56.7366 18.2585 56.8626 18.4425 56.9521 18.6016H57.0415V14.8182H58.5281V25H57.0763V23.8118H56.9521C56.8626 23.9742 56.7333 24.1598 56.5643 24.3686C56.3986 24.5774 56.1699 24.7597 55.8782 24.9155C55.5865 25.0713 55.2087 25.1491 54.7447 25.1491ZM55.0728 23.8814C55.5004 23.8814 55.8616 23.7687 56.1566 23.5433C56.4549 23.3146 56.6803 22.9981 56.8327 22.5938C56.9885 22.1894 57.0664 21.7187 57.0664 21.1818C57.0664 20.6515 56.9902 20.1875 56.8377 19.7898C56.6853 19.392 56.4615 19.0821 56.1665 18.8601C55.8716 18.638 55.507 18.527 55.0728 18.527C54.6254 18.527 54.2525 18.643 53.9542 18.875C53.6559 19.107 53.4305 19.4235 53.2781 19.8246C53.1289 20.2256 53.0543 20.678 53.0543 21.1818C53.0543 21.6922 53.1306 22.1513 53.283 22.5589C53.4355 22.9666 53.6609 23.2898 53.9592 23.5284C54.2608 23.7637 54.632 23.8814 55.0728 23.8814ZM66.372 19.228L65.0247 19.4666C64.9683 19.2943 64.8788 19.1302 64.7562 18.9744C64.6369 18.8187 64.4745 18.6911 64.269 18.5916C64.0635 18.4922 63.8066 18.4425 63.4984 18.4425C63.0775 18.4425 62.7261 18.5369 62.4444 18.7259C62.1627 18.9115 62.0218 19.1518 62.0218 19.4467C62.0218 19.7019 62.1163 19.9074 62.3052 20.0632C62.4941 20.219 62.7991 20.3466 63.22 20.446L64.4331 20.7244C65.1357 20.8868 65.6594 21.1371 66.0041 21.4751C66.3488 21.8132 66.5211 22.2524 66.5211 22.7926C66.5211 23.25 66.3886 23.6577 66.1234 24.0156C65.8616 24.3703 65.4953 24.6487 65.0247 24.8509C64.5574 25.053 64.0154 25.1541 63.399 25.1541C62.5439 25.1541 61.8462 24.9718 61.3059 24.6072C60.7657 24.2393 60.4342 23.7173 60.3116 23.0412L61.7484 22.8224C61.8379 23.197 62.0218 23.4804 62.3002 23.6726C62.5787 23.8615 62.9416 23.956 63.389 23.956C63.8762 23.956 64.2657 23.8549 64.5574 23.6527C64.849 23.4472 64.9949 23.197 64.9949 22.902C64.9949 22.6634 64.9054 22.4628 64.7264 22.3004C64.5507 22.138 64.2806 22.0154 63.916 21.9325L62.6234 21.6491C61.9108 21.4867 61.3838 21.2282 61.0424 20.8736C60.7044 20.5189 60.5353 20.0698 60.5353 19.5263C60.5353 19.0755 60.6613 18.6811 60.9132 18.343C61.1651 18.005 61.5131 17.7415 61.9572 17.5526C62.4013 17.3603 62.9101 17.2642 63.4835 17.2642C64.3088 17.2642 64.9584 17.4432 65.4324 17.8011C65.9063 18.1558 66.2195 18.6314 66.372 19.228Z" fill="#333D4C"/>
<g clip-path="url(#clip0_927_15640)">
<path fill-rule="evenodd" clip-rule="evenodd" d="M82 13.9167C78.6403 13.9167 75.9167 16.6403 75.9167 20C75.9167 23.3597 78.6403 26.0833 82 26.0833C85.3597 26.0833 88.0833 23.3597 88.0833 20C88.0833 16.6403 85.3597 13.9167 82 13.9167ZM74.75 20C74.75 15.9959 77.9959 12.75 82 12.75C86.0041 12.75 89.25 15.9959 89.25 20C89.25 24.0041 86.0041 27.25 82 27.25C77.9959 27.25 74.75 24.0041 74.75 20Z" fill="#333D4C"/>
<path fill-rule="evenodd" clip-rule="evenodd" d="M82 16.75C82.3222 16.75 82.5833 17.0112 82.5833 17.3333V22.6667C82.5833 22.9888 82.3222 23.25 82 23.25C81.6778 23.25 81.4167 22.9888 81.4167 22.6667V17.3333C81.4167 17.0112 81.6778 16.75 82 16.75Z" fill="#333D4C"/>
<path fill-rule="evenodd" clip-rule="evenodd" d="M78.75 20C78.75 19.6778 79.0112 19.4167 79.3333 19.4167H84.6667C84.9888 19.4167 85.25 19.6778 85.25 20C85.25 20.3222 84.9888 20.5833 84.6667 20.5833H79.3333C79.0112 20.5833 78.75 20.3222 78.75 20Z" fill="#333D4C"/>
</g>
<defs>
<clipPath id="clip0_927_15640">
<rect width="16" height="16" fill="white" transform="translate(74 12)"/>
</clipPath>
</defs>
</svg>
