<svg width="104" height="35" viewBox="0 0 104 35" fill="none" xmlns="http://www.w3.org/2000/svg">
<path d="M24.1913 18.5978C24.1484 14.1689 27.8689 12.0411 28.0363 11.9397C25.9422 8.92949 22.6893 8.51574 21.5307 8.4693C18.7628 8.19065 16.1279 10.0736 14.7204 10.0736C13.3128 10.0736 11.1457 8.50729 8.84984 8.55374C5.82876 8.59595 3.0437 10.2805 1.48595 12.9403C-1.64671 18.2853 0.687765 26.2226 3.74747 30.567C5.24514 32.6907 7.02175 35.0845 9.3648 34.9958C11.622 34.9072 12.4717 33.5604 15.1924 33.5604C17.9131 33.5604 18.6812 34.9958 21.0629 34.9536C23.4875 34.9072 25.0238 32.7835 26.5086 30.6514C28.2165 28.1816 28.9246 25.7962 28.9675 25.6695C28.9117 25.6484 24.2428 23.8879 24.1913 18.5978Z" fill="#6C727F"/>
<path d="M19.7152 5.58987C20.9597 4.10796 21.7965 2.05187 21.5691 0C19.7796 0.0717732 17.6125 1.1737 16.3294 2.65561C15.1793 3.96442 14.1709 6.0585 14.4455 8.06815C16.4324 8.22014 18.475 7.06755 19.7152 5.58987ZM39.8844 22.9505L37.8246 29.0935H35.1768L41.9185 9.57117H45.0082L51.7756 29.0935H49.0378L46.9179 22.9505H39.8844ZM46.39 20.9789L44.4504 15.3595C44.0084 14.0844 43.7166 12.9276 43.4205 11.7961H43.3647C43.0686 12.953 42.7467 14.1393 42.3648 15.3299L40.4251 20.9747L46.39 20.9789ZM53.784 19.649C53.784 17.8546 53.7282 16.4023 53.6638 15.0724H55.9897L56.1099 17.4789H56.1657C57.2256 15.769 58.9035 14.7557 61.2294 14.7557C64.6753 14.7557 67.263 17.6224 67.263 21.8824C67.263 26.9234 64.1432 29.4101 60.7874 29.4101C58.9035 29.4101 57.2557 28.5995 56.4017 27.2105H56.3459V34.8269H53.784V19.649ZM56.3416 23.3854C56.3416 23.7654 56.3974 24.1074 56.4618 24.4282C56.9338 26.193 58.4916 27.4131 60.3497 27.4131C63.0876 27.4131 64.6796 25.2135 64.6796 21.9964C64.6796 19.1846 63.1777 16.7865 60.4398 16.7865C58.6761 16.7865 57.0282 18.032 56.5218 19.9445C56.4317 20.2612 56.3459 20.6411 56.3459 20.9873L56.3416 23.3854ZM69.9408 19.649C69.9408 17.8546 69.885 16.4023 69.8206 15.0724H72.1465L72.2667 17.4789H72.3225C73.3824 15.769 75.0603 14.7557 77.3862 14.7557C80.8321 14.7557 83.4198 17.6224 83.4198 21.8824C83.4198 26.9234 80.3 29.4101 76.9442 29.4101C75.0603 29.4101 73.4125 28.5995 72.5585 27.2105H72.5027V34.8269H69.9408V19.649ZM72.5027 23.3854C72.5027 23.7654 72.5585 24.1074 72.6229 24.4282C73.0949 26.193 74.6526 27.4131 76.5108 27.4131C79.2486 27.4131 80.8407 25.2135 80.8407 21.9964C80.8407 19.1846 79.3388 16.7865 76.6009 16.7865C74.8372 16.7865 73.1893 18.032 72.6829 19.9445C72.5928 20.2612 72.507 20.6411 72.507 20.9873L72.5027 23.3854ZM86.1019 8.52835H88.6938V29.0893H86.1019V8.52835ZM93.9035 22.5452C93.9593 25.9903 96.1993 27.4131 98.787 27.4131C100.641 27.4131 101.761 27.0965 102.731 26.6912L103.173 28.5151C102.263 28.9204 100.701 29.3848 98.4351 29.3848C94.0494 29.3848 91.4274 26.5476 91.4274 22.3172C91.4274 18.0869 93.9593 14.7557 98.109 14.7557C102.761 14.7557 103.997 18.7793 103.997 21.3589C103.997 21.8824 103.941 22.2835 103.907 22.5452H93.9035ZM101.499 20.7214C101.529 19.1001 100.821 16.5796 97.9073 16.5796C95.2853 16.5796 94.1395 18.9566 93.9335 20.7214H101.499Z" fill="#6C727F"/>
</svg>
