<svg width="96" height="22" viewBox="0 0 96 22" fill="none" xmlns="http://www.w3.org/2000/svg">
<path d="M15.6744 19.3504C11.211 19.3504 7.59372 15.612 7.59372 11.0006C7.59372 6.38904 11.211 2.65418 15.6744 2.65418C17.2476 2.65418 18.7164 3.11764 19.9572 3.92099L15.6744 11.0006L23.7372 6.19171C22.8612 4.75 21.6048 3.50773 20.0856 2.56506C18.1524 1.36952 15.4632 0.629639 12.4896 0.629639C8.24784 0.629639 4.52652 2.22183 2.45124 4.60621C0.91476 6.36884 0 8.58724 0 11.0005C0 13.4155 0.91476 15.6355 2.45124 17.3994C4.53192 19.7867 8.1978 21.3696 12.3696 21.3696C16.5408 21.3696 20.2056 19.7855 22.2876 17.3994C22.4016 17.268 22.512 17.1354 22.6164 16.9978L22.302 15.7805C20.8392 17.9373 18.4164 19.3504 15.6744 19.3504Z" fill="#6C727F"/>
<path d="M42.4056 20.8676L39.0216 7.82765C38.478 5.72043 36.6204 4.17163 34.4088 4.17163C33.8352 4.17163 33.2856 4.27748 32.7756 4.46912L25.4904 7.20553H32.9832L34.2636 12.1448C33.0216 11.0407 31.404 10.3688 29.6328 10.3688C26.1156 10.3688 23.268 12.8034 23.268 15.8066C23.268 18.81 26.1156 21.2482 29.6328 21.2482C32.1648 21.2482 34.404 19.9677 35.7852 18.0006L36.528 20.8676H42.4056ZM32.0832 18.8422C30.4608 18.8422 29.1456 17.4849 29.1456 15.8066C29.1456 14.1307 30.4608 12.7722 32.0832 12.7722C33.7056 12.7722 35.022 14.1307 35.022 15.8066C35.022 17.4849 33.7056 18.8422 32.0832 18.8422Z" fill="#6C727F"/>
<path d="M56.2032 4.17386C55.7592 4.17386 55.3392 4.27525 54.9648 4.45685L50.2872 6.7086C50.0556 5.27023 48.846 4.17386 47.3868 4.17386C46.9452 4.17386 46.524 4.27525 46.1448 4.45685L40.434 7.20553H44.4492V20.8677H50.3268V8.72545C50.3268 7.88765 50.9832 7.20565 51.7968 7.20565C52.6056 7.20565 53.2668 7.88765 53.2668 8.72545V20.8677H59.142V7.20553C59.142 5.53004 57.8256 4.17386 56.2032 4.17386Z" fill="#6C727F"/>
<path d="M93.0624 4.17386C92.6172 4.17386 92.1948 4.27525 91.8144 4.45685L87.1416 6.7086C86.9112 5.27023 85.7016 4.17386 84.2424 4.17386C83.8008 4.17386 83.3796 4.27525 82.9992 4.45685L77.2908 7.20553H81.3048V20.8677H87.1812V8.72545C87.1812 7.88765 87.8388 7.20565 88.6524 7.20565C89.4636 7.20565 90.12 7.88765 90.12 8.72545V20.8677H96V7.20553C96 5.53004 94.6824 4.17386 93.0624 4.17386Z" fill="#6C727F"/>
<path d="M78.2412 12.7721C78.2412 17.5209 74.5152 21.3696 69.9192 21.3696C65.3196 21.3696 61.5912 17.5209 61.5912 12.7721C61.5912 8.02449 65.3196 4.17386 69.9192 4.17386C74.5152 4.17386 78.2412 8.02462 78.2412 12.7721ZM70.2636 6.78334C70.002 5.77163 68.9952 5.17107 68.016 5.44302C67.038 5.71386 66.4536 6.75446 66.7164 7.76605L69.5712 18.7604C69.8352 19.7731 70.8396 20.373 71.8188 20.1053C72.798 19.8314 73.38 18.7914 73.1172 17.7799L70.2636 6.78334Z" fill="#6C727F"/>
</svg>
