<svg width="144" height="13" viewBox="0 0 144 13" fill="none" xmlns="http://www.w3.org/2000/svg">
<path fill-rule="evenodd" clip-rule="evenodd" d="M-0.000183105 12.3327L3.51704 0.483489H9.5742L11.1038 5.54681L15.498 0.459661H21.9271L18.5813 12.3217L13.7229 12.3386L15.498 6.21895L9.85986 12.3386H7.47128L5.73121 5.79204L3.77564 12.3386L-0.000183105 12.3327ZM42.7878 0.45768L57.7117 0.483489L56.8156 4.30978H51.6916L49.5867 12.3327L44.8637 12.3386L46.8273 4.34353H41.7835L42.7878 0.45768ZM82.8154 0.479527V3.23456H82.8234L82.2421 5.52696H87.358C87.358 5.52696 88.6009 5.3135 88.6721 4.19063C88.7312 3.19683 87.797 3.26633 87.797 3.26633L82.8164 3.24846V0.482489L90.5234 0.478527C90.5234 0.478527 93.8221 0.725736 93.5014 3.55325C93.1706 6.37878 90.1385 7.28025 90.1385 7.28025C90.1385 7.28025 89.9541 7.46095 90.0974 7.56718C90.2407 7.67142 91.3734 7.88289 91.5167 8.94024C91.6601 9.99956 91.1449 10.77 91.1449 11.0907C91.1449 11.4054 91.1779 12.0408 91.5839 12.3217H86.7135C86.7135 12.3217 85.8445 12.1897 85.9186 11.3011C85.9908 10.4225 86.0319 9.64909 86.0319 9.64909C86.0319 9.64909 85.9597 8.72678 84.6537 8.83698L81.0924 8.80223L80.078 12.3337H75.6105L79.0115 0.480508L82.8154 0.479527ZM116.642 0.479527H121.213L118.999 9.07624H126.521L125.648 12.3426H113.519L116.642 0.479527ZM141.135 0.469585L143.877 12.3386H139.122L138.619 10.2815L138.602 10.2418H132.84L132.82 10.2597L131.429 12.3327L127.402 12.3386L135.534 0.469585L137.109 3.96824L134.751 7.42719L134.819 7.45201H137.875L137.93 7.44606L137.109 3.96824L135.534 0.469585H141.135ZM32.582 3.10649C34.0324 3.10649 35.4607 3.81735 35.6862 4.84888C36.3748 8.14798 32.8225 9.56074 33.2395 9.35324C31.1957 10.357 28.0905 10.0353 27.7256 7.95536C27.3798 5.95585 28.9385 3.98711 30.2505 3.51751C31.1486 3.19683 31.8894 3.06082 32.582 3.10649L32.592 3.07573L32.609 0C31.6698 0.0188634 30.6124 0.13401 29.7784 0.295838C26.1971 0.975912 21.6835 4.19858 22.4784 8.27803C23.1479 11.7261 27.87 13.5766 33.1643 12.563C38.1289 11.6188 41.3795 7.83225 40.6809 4.47358C40.0093 1.22412 36.1232 0 32.609 0V2.65973L32.582 3.10649ZM67.2931 3.10649C68.7415 3.10649 70.1749 3.81735 70.3873 4.84888C71.089 8.14798 67.5327 9.56074 67.9567 9.35324C65.9099 10.357 62.8016 10.0353 62.4398 7.95536C62.0889 5.95585 63.6486 3.98711 64.9637 3.51751C65.8588 3.19683 66.6095 3.06082 67.2931 3.10649L67.3031 3.07573L67.3232 0C66.3711 0.0227072 65.4225 0.12163 64.4865 0.295838C60.9082 0.975912 56.3876 4.19858 57.1825 8.27803C57.851 11.7261 62.5851 13.5766 67.8705 12.563C72.8401 11.6188 76.0957 7.83225 75.394 4.47358C74.7205 1.22412 70.8354 0 67.3222 0V2.65973L67.2931 3.10649ZM105.029 3.07573C106.478 3.15515 107.897 3.81735 108.119 4.84888C108.811 8.14798 105.258 9.56074 105.685 9.35324C103.637 10.357 100.53 10.0353 100.166 7.95536C99.8171 5.95585 101.372 3.98711 102.69 3.51751C103.768 3.12932 104.189 3.02112 105.029 3.07573L105.049 0C104.097 0.0231807 103.149 0.1221 102.213 0.295838C98.6404 0.975912 94.1238 4.19858 94.9147 8.27803C95.5842 11.7261 100.314 13.5766 105.604 12.563C110.568 11.6188 113.824 7.83225 113.117 4.47358C112.448 1.22412 108.562 0 105.049 0V2.65973L105.029 3.07573Z" fill="#6C727F"/>
</svg>
