<svg width="105" height="16" viewBox="0 0 105 16" fill="none" xmlns="http://www.w3.org/2000/svg">
<path d="M9.57358 1.23568C8.77717 0.443022 7.46648 0.0386151 5.69919 0C2.99254 0 1.19691 1.20002 0.516917 2.26355C0.354074 2.59935 0.239898 2.95654 0.177812 3.32441C0.0568038 4.06652 0.0687624 4.65347 0.214395 5.34293C0.866576 8.41037 6.16352 9.29642 6.92123 11.1935C7.05561 11.5291 7.02325 11.9679 6.94938 12.2656C6.79038 12.9129 6.33026 13.2295 5.5423 13.2295C4.71071 13.2295 4.10004 12.7669 4.10004 11.9286L4.09793 10.4373H0.00263102L-0.000183105 11.6344C-0.000183105 14.1647 1.57715 16 5.45998 16C8.24177 16 10.427 15.0423 10.7808 12.5604C10.9539 11.3479 10.8442 10.5005 10.7633 10.1045C10.1463 7.02725 4.47362 5.99166 4.06486 4.32419C4.00679 4.07433 4.00152 3.81513 4.04939 3.56312C4.1922 2.92562 4.63473 2.60196 5.35304 2.60196C6.20784 2.60196 6.69047 3.09974 6.69047 3.90294V4.86691H10.5107V3.77516C10.5107 2.71149 10.1962 1.85774 9.57358 1.23568Z" fill="#6C727F"/>
<path d="M99.0236 15.7086C99.1995 15.7086 99.3641 15.6904 99.5337 15.682C100.428 15.6375 102.679 15.2703 103.668 13.8249C104.022 13.3089 104.247 12.7051 104.311 11.9918C104.358 11.4862 104.362 11.2833 104.363 11.0088V6.97459H98.9948V9.24236H100.513V11.3479C100.514 11.501 100.51 11.72 100.477 11.904C100.46 12.0107 100.265 12.9473 99.0109 12.9473C97.7474 12.9473 97.5525 12.0107 97.5335 11.904C97.5096 11.7685 97.4976 11.5838 97.5011 11.3479V4.55237C97.5011 4.27855 97.5201 4.03142 97.5602 3.85941C97.6306 3.54627 97.912 2.8175 98.9976 2.8175C100.097 2.8175 100.365 3.54487 100.428 3.8587C100.47 4.06442 100.476 4.3937 100.476 4.41266V5.29378H104.334V4.70332L104.334 4.6849C104.335 4.5334 104.337 4.13955 104.299 3.76954C103.998 0.694371 101.259 0.0547632 99.025 0.0547632C96.1384 0.0547632 94.0559 1.13879 93.74 3.76743C93.7098 4.01176 93.6781 4.48497 93.6781 4.75457L93.6767 11.0074C93.6781 11.2897 93.6859 11.4968 93.7295 11.9918C93.9764 14.7117 96.3572 15.7086 99.0236 15.7086Z" fill="#6C727F"/>
<path d="M19.3823 2.16666L21.3367 15.4194H25.4334L22.6798 0.452851H15.9589L13.1884 15.4194H17.3076L19.312 2.16666H19.3823Z" fill="#6C727F"/>
<path d="M41.059 2.42292L41.1498 15.4194H44.9679L44.6372 0.452851H38.4785L36.6795 11.5705H36.5916L34.7976 0.452851H28.636L28.3039 15.4194H32.1347L32.2226 2.42292H32.2915L34.7033 15.4194H38.5692L40.9929 2.42292H41.059Z" fill="#6C727F"/>
<path d="M53.9197 15.9249C55.9312 15.9249 58.777 15.418 59.1892 12.519C59.3602 11.3114 59.2512 10.4766 59.1717 10.0877C58.5561 7.03919 52.9334 6.02466 52.5281 4.36491C52.4695 4.11805 52.4633 3.86168 52.5098 3.61227C52.6534 2.98109 53.091 2.66023 53.8142 2.66023C54.6296 2.66023 55.1369 3.13204 55.1369 3.94787V4.90061H58.9205V3.82079C58.9205 2.76835 58.6081 1.92233 57.9911 1.30589C57.1638 0.480233 55.7841 0.0674023 53.8888 0.0674023C51.7697 0.0674023 49.1371 0.636098 48.6924 3.37356C48.5721 4.10795 48.5827 4.68928 48.729 5.37382C49.3678 8.39352 54.6233 9.30554 55.369 11.1668C55.4985 11.4954 55.4682 11.9307 55.3951 12.2291C55.2368 12.8694 54.7809 13.1811 54.0028 13.1811C53.1304 13.1811 52.5654 12.6917 52.5654 11.8921L52.5626 10.4191H48.5166L48.5145 11.6014C48.5145 14.5003 50.58 15.9249 53.9197 15.9249Z" fill="#6C727F"/>
<path d="M73.165 12.1448C73.1805 12.0009 73.208 11.4399 73.2023 11.1591V0.449341H69.3462V11.4989C69.3462 11.7369 69.3329 11.9286 69.3111 12.0592C69.2597 12.3014 69.0149 13.0997 67.9258 13.0997C66.8332 13.0997 66.5884 12.3021 66.5405 12.0563C66.5159 11.9293 66.5032 11.7467 66.5075 11.4996V0.449341H62.6366V11.1619C62.6354 11.4899 62.6479 11.8178 62.6739 12.1448C62.9032 14.6106 64.6719 15.8638 67.9258 15.8638C71.167 15.8638 72.9343 14.6106 73.165 12.1448Z" fill="#6C727F"/>
<path d="M84.4934 15.267H89.8797V0.452851H86.0982L86.2959 11.8408H86.2178L82.876 0.452851H77.2639V15.267H81.0179L80.8174 3.41217H80.8779L84.4934 15.267Z" fill="#6C727F"/>
</svg>
