<svg width="100" height="18" viewBox="0 0 100 18" fill="none" xmlns="http://www.w3.org/2000/svg">
<path d="M35.6257 18C32.0032 18 28.6406 16.8893 26.396 14.8296C24.7002 13.2734 23.8853 11.1596 23.8853 8.98409C23.8853 6.83502 24.7353 4.70669 26.3958 3.15873C28.4803 1.2164 32.1606 0 35.6257 0C39.4602 0 42.5293 0.987488 44.8755 3.16407C46.5448 4.71284 47.3518 6.83174 47.3518 8.98429C47.3518 11.0707 46.4954 13.2927 44.8755 14.8296C42.6908 16.9027 39.2574 18 35.6257 18V15.6259C37.5484 15.6259 39.3319 14.9472 40.5775 13.6801C41.8145 12.4216 42.3908 10.8747 42.3908 8.98409C42.3908 7.17294 41.7691 5.47964 40.5775 4.27864C39.3486 3.04109 37.5225 2.34472 35.6257 2.34472C33.7231 2.34472 31.8958 3.03391 30.6659 4.27864C29.4807 5.47923 28.8574 7.17746 28.8574 8.98409C28.8574 10.7852 29.488 12.4824 30.6659 13.6803C31.8968 14.9322 33.7177 15.6259 35.6257 15.6259V18ZM9.149 0.00862257C7.21125 0.00862257 5.00984 0.379187 3.13936 1.23323C1.41305 2.02076 4.09133e-07 3.29443 4.09133e-07 5.40593C-0.000802804 7.30762 1.18133 8.42136 1.1492 8.39057C1.65201 8.86378 2.46145 9.66958 4.57771 10.1428C5.52349 10.3543 7.54558 10.679 9.55924 10.8942C11.558 11.1098 13.5251 11.3146 14.3263 11.522C14.9629 11.6877 16.0321 11.9133 16.0321 13.1398C16.0321 14.3613 14.9056 14.7341 14.7098 14.815C14.5143 14.894 13.1629 15.528 10.7335 15.528C8.93996 15.528 6.78374 14.9766 5.99779 14.6891C5.09177 14.3594 4.14137 13.9234 3.25482 12.8162C3.03434 12.5417 2.68655 11.7868 2.68655 11.0393H0.487952V17.3379H2.93173V16.4869C2.93173 16.39 3.0502 15.9916 3.46044 16.1811C3.97088 16.4182 5.46928 17.0281 7.03595 17.3625C8.32048 17.6372 9.1488 17.8341 10.7458 17.8341C13.3514 17.8341 14.7512 17.4001 15.7189 17.1176C16.6305 16.8507 17.757 16.3716 18.6721 15.6255C19.1677 15.2221 20.2544 14.188 20.2544 12.311C20.2544 10.5093 19.3086 9.39099 18.9759 9.05081C18.5227 8.58725 17.9691 8.22797 17.3922 7.95103C16.8896 7.70918 16.0964 7.41868 15.4474 7.25629C14.1878 6.94013 11.3396 6.55006 9.97751 6.4043C8.5492 6.25177 6.07149 6.04195 5.08193 5.72887C4.78193 5.63382 4.17028 5.33593 4.17028 4.60999C4.17028 4.09366 4.45 3.65596 5.00281 3.30223C5.88032 2.74013 7.65281 2.39071 9.5004 2.39071C11.6847 2.38249 13.5345 2.89307 14.7112 3.43096C15.1114 3.61367 15.5797 3.87605 15.9516 4.18646C16.3713 4.53629 16.9604 5.26325 17.1735 6.27722H19.1474V0.794507H16.9434V1.43176C16.9434 1.63746 16.7355 1.90476 16.3426 1.68386C15.3562 1.15481 12.5679 0.0133444 9.149 0.00862257ZM57.449 1.00494L68.2004 10.925L68.09 4.24599C68.0791 3.37019 67.9213 3.00455 66.9948 3.00455H64.9733V1.00658H74.1661V3.00455H72.1942C71.2492 3.00455 71.1896 3.31353 71.1781 4.24599L71.3448 17.008H68.1966L55.8131 5.70834L55.8157 13.7277C55.8265 14.5994 55.8665 15.01 56.745 15.01H58.9528V17.0072H49.9247V15.0102H52.0351C52.8235 15.0102 52.7922 14.2418 52.7922 13.6824V4.32195C52.7922 3.71776 52.7092 3.00599 51.4715 3.00599H49.759V1.00494H57.449ZM84.6707 15.0063C84.757 15.0063 85.1406 14.995 85.2149 14.9718C85.4271 14.9041 85.5711 14.7493 85.6378 14.5879C85.6659 14.5202 85.6799 14.2204 85.6799 14.1554L85.6815 10.9979C85.6815 10.9219 85.6761 10.8891 85.55 10.7199C85.4115 10.5351 79.9185 4.17085 79.6671 3.89062C79.3548 3.54264 78.8066 3.00476 77.9737 3.00476H76.0635V1.00597H86.844V3.00229H85.5444C85.2438 3.00229 85.044 3.29382 85.3008 3.61778C85.3008 3.61778 88.9279 8.05368 88.9623 8.10007C88.996 8.14729 89.0249 8.15858 89.0711 8.11547C89.1165 8.07133 92.7892 3.65843 92.8181 3.62353C92.9928 3.40961 92.8743 3.00455 92.4978 3.00455H91.1647V1.00597H100V3.00455H98.0261C97.3101 3.00455 97.0187 3.14005 96.4799 3.76272C96.2335 4.04767 90.6819 10.5263 90.5309 10.7018C90.4518 10.7936 90.4586 10.9215 90.4586 10.9975V14.1545C90.4586 14.2186 90.4727 14.5187 90.5008 14.5861C90.5677 14.7483 90.7124 14.9031 90.9245 14.97C90.9988 14.9934 91.3771 15.0049 91.4633 15.0049H93.4823V17.0033H82.7574V15.0047L84.6707 15.0063Z" fill="#6C727F"/>
</svg>
